<?xml version="1.0" encoding="UTF-8" ?>
<!DOCTYPE svg PUBLIC "-//W3C//DTD SVG 1.1//EN" "http://www.w3.org/Graphics/SVG/1.1/DTD/svg11.dtd">
<svg width="512pt" height="512pt" viewBox="0 0 512 512" version="1.1" xmlns="http://www.w3.org/2000/svg">
<path fill="#fefefe" d=" M 0.00 0.00 L 512.00 0.00 L 512.00 512.00 L 0.00 512.00 L 0.00 0.00 Z" />
<path fill="#010101" d=" M 231.11 50.00 C 248.37 50.00 265.63 50.00 282.89 50.00 C 288.29 65.37 293.90 80.68 299.18 96.10 C 313.61 100.08 327.55 105.75 340.57 113.15 C 371.48 92.76 402.39 72.37 433.31 52.01 C 433.81 52.45 434.80 53.32 435.29 53.76 C 440.33 76.30 434.15 99.56 424.89 120.15 C 416.74 137.60 408.42 154.97 400.10 172.33 C 407.69 185.19 413.57 199.06 417.39 213.50 C 417.50 215.13 419.41 215.12 420.55 215.69 C 435.04 220.81 449.52 225.97 464.00 231.11 C 464.00 247.70 464.00 264.29 464.00 280.89 C 448.62 286.30 433.30 291.91 417.86 297.19 C 413.78 312.03 408.00 326.44 400.10 339.67 C 407.24 354.50 414.28 369.38 421.34 384.25 C 409.78 395.93 398.06 407.45 386.53 419.16 C 385.13 419.06 383.66 419.20 382.40 418.48 C 368.54 411.87 354.68 405.28 340.81 398.70 C 327.74 406.19 313.71 411.89 299.19 415.88 C 293.89 431.30 288.30 446.62 282.89 462.00 C 265.63 462.00 248.37 462.00 231.11 462.00 C 225.68 446.60 220.11 431.25 214.77 415.82 C 199.92 411.80 185.55 405.96 172.30 398.10 C 157.50 405.27 142.60 412.25 127.76 419.34 C 116.03 407.67 104.33 395.97 92.66 384.24 C 99.73 369.39 106.72 354.51 113.90 339.71 C 106.03 326.45 100.21 312.06 96.15 297.20 C 80.72 291.90 65.39 286.30 50.00 280.89 C 50.00 264.29 50.00 247.70 50.00 231.11 C 65.41 225.66 80.80 220.13 96.23 214.72 C 100.16 199.87 106.07 185.54 113.90 172.32 C 109.05 162.38 104.40 152.35 99.60 142.40 C 93.43 129.08 86.45 116.06 82.14 101.98 C 77.23 86.50 75.11 69.76 78.70 53.77 C 79.20 53.33 80.19 52.45 80.69 52.01 C 111.64 72.38 142.55 92.82 173.52 113.18 C 186.43 105.67 200.39 100.08 214.79 96.16 C 220.10 80.73 225.69 65.39 231.11 50.00 Z" />
<path fill="#fefefe" d=" M 248.08 174.11 C 265.51 172.54 283.53 176.41 298.49 185.59 C 317.83 197.17 332.00 217.04 336.51 239.14 C 339.87 254.89 338.39 271.62 332.37 286.55 C 325.80 303.06 313.69 317.28 298.47 326.42 C 280.01 337.69 256.96 341.08 236.00 335.80 C 215.81 330.81 197.79 317.77 186.66 300.21 C 178.05 286.83 173.52 270.89 173.73 254.99 C 173.93 235.91 181.03 216.97 193.53 202.54 C 207.13 186.49 227.12 176.05 248.08 174.11 Z" />
</svg>
