<svg id="svg" version="1.1" width="512" height="512" xmlns="http://www.w3.org/2000/svg" xmlns:xlink="http://www.w3.org/1999/xlink" style="display: block;"><g id="svgg"><path id="path0" d="M173.827 56.827 L 167.576 74.577 159.374 77.387 C 154.863 78.933,147.594 81.882,143.220 83.940 L 135.269 87.683 99.080 63.796 C 58.426 36.962,61.419 38.170,60.135 48.072 C 57.953 64.903,61.617 78.175,77.858 112.261 L 88.352 134.287 84.377 142.425 C 82.191 146.901,79.091 154.391,77.489 159.070 L 74.577 167.576 56.827 173.827 L 39.076 180.078 39.076 200.000 L 39.076 219.922 56.827 226.173 L 74.577 232.424 77.489 240.930 C 79.091 245.609,82.192 253.102,84.381 257.582 L 88.359 265.728 80.095 283.034 L 71.830 300.340 85.745 314.255 L 99.660 328.170 116.966 319.905 L 134.272 311.641 142.418 315.619 C 146.898 317.808,154.391 320.909,159.070 322.511 L 167.576 325.423 173.827 343.173 L 180.078 360.924 200.781 360.924 L 221.484 360.924 227.735 343.173 L 233.986 325.423 242.499 322.509 C 247.181 320.906,254.501 317.888,258.767 315.803 L 266.522 312.012 283.380 320.069 C 292.652 324.500,300.627 328.125,301.104 328.125 C 301.580 328.125,308.215 321.872,315.849 314.229 L 329.729 300.333 321.466 283.031 L 313.203 265.728 317.182 257.582 C 319.370 253.102,322.471 245.609,324.073 240.930 L 326.986 232.424 344.736 226.173 L 362.486 219.922 362.486 200.000 L 362.486 180.078 344.736 173.827 L 326.986 167.576 324.073 159.070 C 322.471 154.391,319.372 146.901,317.185 142.425 L 313.210 134.287 323.705 112.261 C 339.945 78.175,343.610 64.903,341.427 48.072 C 340.143 38.170,343.136 36.962,302.483 63.796 L 266.294 87.683 258.342 83.940 C 253.969 81.882,246.700 78.933,242.189 77.387 L 233.986 74.577 227.735 56.827 L 221.484 39.076 200.781 39.076 L 180.078 39.076 173.827 56.827 M216.406 138.294 C 267.891 152.764,280.741 218.800,238.324 250.933 C 196.481 282.632,136.384 252.605,136.384 200.000 C 136.384 158.067,176.552 127.093,216.406 138.294 " stroke="none" fill="#000000" fill-rule="evenodd"></path><path id="path1" d="M173.827 56.827 L 167.576 74.577 159.374 77.387 C 154.863 78.933,147.594 81.882,143.220 83.940 L 135.269 87.683 99.080 63.796 C 58.426 36.962,61.419 38.170,60.135 48.072 C 57.953 64.903,61.617 78.175,77.858 112.261 L 88.352 134.287 84.377 142.425 C 82.191 146.901,79.091 154.391,77.489 159.070 L 74.577 167.576 56.827 173.827 L 39.076 180.078 39.076 200.000 L 39.076 219.922 56.827 226.173 L 74.577 232.424 77.489 240.930 C 79.091 245.609,82.192 253.102,84.381 257.582 L 88.359 265.728 80.095 283.034 L 71.830 300.340 85.745 314.255 L 99.660 328.170 116.966 319.905 L 134.272 311.641 142.418 315.619 C 146.898 317.808,154.391 320.909,159.070 322.511 L 167.576 325.423 173.827 343.173 L 180.078 360.924 200.781 360.924 L 221.484 360.924 227.735 343.173 L 233.986 325.423 242.499 322.509 C 247.181 320.906,254.501 317.888,258.767 315.803 L 266.522 312.012 283.380 320.069 C 292.652 324.500,300.627 328.125,301.104 328.125 C 301.580 328.125,308.215 321.872,315.849 314.229 L 329.729 300.333 321.466 283.031 L 313.203 265.728 317.182 257.582 C 319.370 253.102,322.471 245.609,324.073 240.930 L 326.986 232.424 344.736 226.173 L 362.486 219.922 362.486 200.000 L 362.486 180.078 344.736 173.827 L 326.986 167.576 324.073 159.070 C 322.471 154.391,319.372 146.901,317.185 142.425 L 313.210 134.287 323.705 112.261 C 339.945 78.175,343.610 64.903,341.427 48.072 C 340.143 38.170,343.136 36.962,302.483 63.796 L 266.294 87.683 258.342 83.940 C 253.969 81.882,246.700 78.933,242.189 77.387 L 233.986 74.577 227.735 56.827 L 221.484 39.076 200.781 39.076 L 180.078 39.076 173.827 56.827 M216.406 138.294 C 267.891 152.764,280.741 218.800,238.324 250.933 C 196.481 282.632,136.384 252.605,136.384 200.000 C 136.384 158.067,176.552 127.093,216.406 138.294 " stroke="none" fill="#000000" fill-rule="evenodd"></path><path id="path2" d="M173.827 56.827 L 167.576 74.577 159.374 77.387 C 154.863 78.933,147.594 81.882,143.220 83.940 L 135.269 87.683 99.080 63.796 C 58.426 36.962,61.419 38.170,60.135 48.072 C 57.953 64.903,61.617 78.175,77.858 112.261 L 88.352 134.287 84.377 142.425 C 82.191 146.901,79.091 154.391,77.489 159.070 L 74.577 167.576 56.827 173.827 L 39.076 180.078 39.076 200.000 L 39.076 219.922 56.827 226.173 L 74.577 232.424 77.489 240.930 C 79.091 245.609,82.192 253.102,84.381 257.582 L 88.359 265.728 80.095 283.034 L 71.830 300.340 85.745 314.255 L 99.660 328.170 116.966 319.905 L 134.272 311.641 142.418 315.619 C 146.898 317.808,154.391 320.909,159.070 322.511 L 167.576 325.423 173.827 343.173 L 180.078 360.924 200.781 360.924 L 221.484 360.924 227.735 343.173 L 233.986 325.423 242.499 322.509 C 247.181 320.906,254.501 317.888,258.767 315.803 L 266.522 312.012 283.380 320.069 C 292.652 324.500,300.627 328.125,301.104 328.125 C 301.580 328.125,308.215 321.872,315.849 314.229 L 329.729 300.333 321.466 283.031 L 313.203 265.728 317.182 257.582 C 319.370 253.102,322.471 245.609,324.073 240.930 L 326.986 232.424 344.736 226.173 L 362.486 219.922 362.486 200.000 L 362.486 180.078 344.736 173.827 L 326.986 167.576 324.073 159.070 C 322.471 154.391,319.372 146.901,317.185 142.425 L 313.210 134.287 323.705 112.261 C 339.945 78.175,343.610 64.903,341.427 48.072 C 340.143 38.170,343.136 36.962,302.483 63.796 L 266.294 87.683 258.342 83.940 C 253.969 81.882,246.700 78.933,242.189 77.387 L 233.986 74.577 227.735 56.827 L 221.484 39.076 200.781 39.076 L 180.078 39.076 173.827 56.827 M216.406 138.294 C 267.891 152.764,280.741 218.800,238.324 250.933 C 196.481 282.632,136.384 252.605,136.384 200.000 C 136.384 158.067,176.552 127.093,216.406 138.294 " stroke="none" fill="#000000" fill-rule="evenodd"></path><path id="path3" d="M173.827 56.827 L 167.576 74.577 159.374 77.387 C 154.863 78.933,147.594 81.882,143.220 83.940 L 135.269 87.683 99.080 63.796 C 58.426 36.962,61.419 38.170,60.135 48.072 C 57.953 64.903,61.617 78.175,77.858 112.261 L 88.352 134.287 84.377 142.425 C 82.191 146.901,79.091 154.391,77.489 159.070 L 74.577 167.576 56.827 173.827 L 39.076 180.078 39.076 200.000 L 39.076 219.922 56.827 226.173 L 74.577 232.424 77.489 240.930 C 79.091 245.609,82.192 253.102,84.381 257.582 L 88.359 265.728 80.095 283.034 L 71.830 300.340 85.745 314.255 L 99.660 328.170 116.966 319.905 L 134.272 311.641 142.418 315.619 C 146.898 317.808,154.391 320.909,159.070 322.511 L 167.576 325.423 173.827 343.173 L 180.078 360.924 200.781 360.924 L 221.484 360.924 227.735 343.173 L 233.986 325.423 242.499 322.509 C 247.181 320.906,254.501 317.888,258.767 315.803 L 266.522 312.012 283.380 320.069 C 292.652 324.500,300.627 328.125,301.104 328.125 C 301.580 328.125,308.215 321.872,315.849 314.229 L 329.729 300.333 321.466 283.031 L 313.203 265.728 317.182 257.582 C 319.370 253.102,322.471 245.609,324.073 240.930 L 326.986 232.424 344.736 226.173 L 362.486 219.922 362.486 200.000 L 362.486 180.078 344.736 173.827 L 326.986 167.576 324.073 159.070 C 322.471 154.391,319.372 146.901,317.185 142.425 L 313.210 134.287 323.705 112.261 C 339.945 78.175,343.610 64.903,341.427 48.072 C 340.143 38.170,343.136 36.962,302.483 63.796 L 266.294 87.683 258.342 83.940 C 253.969 81.882,246.700 78.933,242.189 77.387 L 233.986 74.577 227.735 56.827 L 221.484 39.076 200.781 39.076 L 180.078 39.076 173.827 56.827 M216.406 138.294 C 267.891 152.764,280.741 218.800,238.324 250.933 C 196.481 282.632,136.384 252.605,136.384 200.000 C 136.384 158.067,176.552 127.093,216.406 138.294 " stroke="none" fill="#000000" fill-rule="evenodd"></path><path id="path4" d="M173.827 56.827 L 167.576 74.577 159.374 77.387 C 154.863 78.933,147.594 81.882,143.220 83.940 L 135.269 87.683 99.080 63.796 C 58.426 36.962,61.419 38.170,60.135 48.072 C 57.953 64.903,61.617 78.175,77.858 112.261 L 88.352 134.287 84.377 142.425 C 82.191 146.901,79.091 154.391,77.489 159.070 L 74.577 167.576 56.827 173.827 L 39.076 180.078 39.076 200.000 L 39.076 219.922 56.827 226.173 L 74.577 232.424 77.489 240.930 C 79.091 245.609,82.192 253.102,84.381 257.582 L 88.359 265.728 80.095 283.034 L 71.830 300.340 85.745 314.255 L 99.660 328.170 116.966 319.905 L 134.272 311.641 142.418 315.619 C 146.898 317.808,154.391 320.909,159.070 322.511 L 167.576 325.423 173.827 343.173 L 180.078 360.924 200.781 360.924 L 221.484 360.924 227.735 343.173 L 233.986 325.423 242.499 322.509 C 247.181 320.906,254.501 317.888,258.767 315.803 L 266.522 312.012 283.380 320.069 C 292.652 324.500,300.627 328.125,301.104 328.125 C 301.580 328.125,308.215 321.872,315.849 314.229 L 329.729 300.333 321.466 283.031 L 313.203 265.728 317.182 257.582 C 319.370 253.102,322.471 245.609,324.073 240.930 L 326.986 232.424 344.736 226.173 L 362.486 219.922 362.486 200.000 L 362.486 180.078 344.736 173.827 L 326.986 167.576 324.073 159.070 C 322.471 154.391,319.372 146.901,317.185 142.425 L 313.210 134.287 323.705 112.261 C 339.945 78.175,343.610 64.903,341.427 48.072 C 340.143 38.170,343.136 36.962,302.483 63.796 L 266.294 87.683 258.342 83.940 C 253.969 81.882,246.700 78.933,242.189 77.387 L 233.986 74.577 227.735 56.827 L 221.484 39.076 200.781 39.076 L 180.078 39.076 173.827 56.827 M216.406 138.294 C 267.891 152.764,280.741 218.800,238.324 250.933 C 196.481 282.632,136.384 252.605,136.384 200.000 C 136.384 158.067,176.552 127.093,216.406 138.294 " stroke="none" fill="#000000" fill-rule="evenodd"></path></g></svg>