<!DOCTYPE svg PUBLIC "-//W3C//DTD SVG 20010904//EN" "http://www.w3.org/TR/2001/REC-SVG-20010904/DTD/svg10.dtd">
<svg version="1.0" xmlns="http://www.w3.org/2000/svg" width="1600px" height="1600px" viewBox="0 0 16000 16000" preserveAspectRatio="xMidYMid meet">
<g id="layer1" fill="#ffffff" stroke="none">
 <path d="M7957 14580 c-16 -5 -99 -14 -185 -20 -86 -6 -175 -16 -197 -21 -90 -23 -172 -52 -211 -75 -53 -30 -132 -117 -175 -191 -18 -32 -38 -67 -45 -78 -51 -89 -164 -309 -164 -320 0 -3 -23 -54 -51 -113 -150 -318 -193 -381 -293 -431 -69 -34 -174 -71 -200 -71 -9 0 -63 -16 -119 -35 -167 -56 -322 -111 -333 -116 -5 -3 -29 -11 -54 -18 -25 -7 -85 -27 -135 -44 -131 -44 -216 -47 -308 -12 -40 15 -90 35 -112 45 -22 10 -57 26 -77 34 -64 27 -110 47 -183 81 -78 36 -140 63 -170 75 -11 4 -45 18 -75 30 -30 12 -65 27 -77 31 -13 5 -33 13 -45 18 -131 52 -241 81 -312 81 -54 0 -174 -38 -250 -80 -106 -58 -347 -248 -526 -414 -178 -166 -276 -290 -317 -406 -17 -48 -16 -200 2 -285 9 -39 20 -90 25 -115 6 -25 15 -70 20 -100 14 -75 29 -135 50 -200 10 -30 28 -93 40 -140 12 -47 27 -101 32 -120 5 -19 14 -48 18 -65 34 -122 35 -230 5 -289 -8 -16 -15 -32 -15 -36 0 -10 -58 -106 -91 -150 -15 -19 -38 -55 -53 -80 -40 -68 -49 -81 -78 -127 -16 -23 -28 -44 -28 -47 0 -3 -14 -29 -32 -58 -17 -29 -43 -75 -58 -103 -106 -197 -165 -290 -213 -336 -46 -45 -58 -51 -192 -90 -16 -5 -75 -22 -130 -39 -55 -17 -116 -35 -135 -40 -142 -39 -206 -59 -365 -111 -311 -103 -384 -151 -464 -308 -47 -91 -65 -148 -110 -341 -77 -338 -106 -686 -69 -836 28 -110 91 -196 214 -291 42 -32 122 -93 178 -136 55 -43 151 -112 211 -153 297 -203 323 -223 374 -299 32 -48 46 -88 61 -175 6 -36 20 -108 30 -160 11 -52 24 -131 30 -175 6 -44 14 -100 19 -125 16 -84 41 -205 51 -242 6 -21 15 -57 21 -80 25 -98 30 -116 49 -177 23 -72 26 -166 8 -208 -7 -15 -45 -77 -84 -138 -61 -93 -121 -193 -206 -340 -20 -35 -158 -313 -181 -365 -8 -19 -27 -61 -41 -93 -14 -32 -26 -63 -26 -70 0 -7 -4 -17 -9 -23 -5 -5 -18 -38 -29 -74 -11 -36 -36 -110 -55 -165 -19 -55 -40 -120 -47 -145 -7 -25 -16 -56 -20 -70 -10 -29 -66 -265 -79 -330 -83 -414 -110 -862 -76 -1260 24 -276 32 -336 85 -610 9 -45 54 -224 84 -330 15 -55 63 -202 111 -340 68 -197 275 -627 354 -739 12 -16 21 -32 21 -35 0 -17 73 -117 83 -113 9 3 11 35 7 118 -8 189 -3 607 9 693 28 201 34 237 52 331 11 55 24 118 30 140 6 22 15 58 21 80 25 100 85 290 123 391 32 83 33 85 85 197 22 49 40 92 40 95 0 17 119 235 162 299 15 23 28 44 28 48 0 11 144 221 223 325 149 194 349 410 402 435 73 33 106 38 164 25 30 -7 67 -20 81 -28 14 -9 90 -79 170 -156 137 -132 432 -378 571 -476 94 -67 183 -158 209 -214 25 -57 35 -110 74 -436 16 -131 27 -204 46 -322 33 -195 47 -269 62 -318 54 -177 195 -293 498 -409 47 -18 94 -37 105 -41 62 -25 291 -92 410 -121 70 -17 219 -39 262 -39 50 0 144 18 158 31 5 5 16 9 25 9 45 0 246 181 534 482 273 285 330 328 451 342 72 8 488 8 710 0 151 -6 199 -11 233 -26 44 -18 252 -199 391 -338 41 -41 98 -95 127 -120 29 -25 99 -85 156 -135 181 -159 251 -199 358 -208 153 -13 379 38 666 149 149 57 355 158 439 214 69 47 161 135 183 177 30 55 55 160 72 298 6 50 16 119 20 155 5 36 12 115 15 175 20 399 44 534 112 621 27 34 155 144 169 144 3 0 44 30 91 67 47 38 115 92 151 121 37 29 139 122 227 206 201 192 256 220 372 195 55 -12 64 -18 178 -133 153 -154 242 -259 369 -440 93 -133 119 -173 199 -305 74 -123 228 -462 273 -601 8 -25 19 -54 23 -65 17 -41 43 -122 56 -170 31 -117 53 -204 64 -260 7 -33 16 -78 21 -100 8 -37 17 -95 40 -270 22 -162 29 -438 17 -628 -10 -149 -10 -191 0 -199 14 -11 33 -3 33 15 0 7 16 36 36 65 19 29 49 79 66 110 17 31 42 75 55 97 73 128 202 407 259 565 86 236 151 451 193 640 5 25 14 65 20 90 9 42 18 90 41 228 10 62 24 187 40 350 13 135 13 567 0 707 -27 288 -66 529 -121 748 -44 179 -94 340 -165 537 -38 104 -42 114 -72 180 -11 25 -28 63 -37 85 -27 63 -149 304 -187 370 -108 187 -167 284 -227 367 -19 26 -40 64 -48 85 -22 64 -19 95 27 258 39 138 55 205 94 400 44 224 58 288 77 360 11 38 19 79 19 91 0 33 39 144 64 180 27 40 54 61 486 376 111 81 329 257 375 303 62 61 102 128 122 203 18 70 20 246 4 357 -61 410 -91 557 -143 710 -5 17 -28 68 -51 115 -50 102 -108 163 -197 207 -84 42 -452 164 -560 186 -24 5 -155 40 -215 57 -16 5 -41 12 -55 15 -14 4 -34 10 -45 15 -11 5 -45 17 -75 28 -127 43 -163 82 -276 300 -39 75 -81 155 -94 177 -12 22 -34 60 -48 85 -32 57 -101 172 -147 244 -19 30 -35 59 -35 63 0 4 -20 41 -45 82 -86 143 -90 191 -37 416 9 36 17 71 42 185 4 19 19 78 33 130 14 52 30 124 36 160 13 75 28 156 43 220 17 76 21 279 7 325 -23 72 -131 226 -215 305 -92 88 -294 259 -368 312 -235 170 -333 225 -450 252 -108 25 -223 0 -456 -101 -19 -8 -44 -19 -55 -23 -52 -22 -503 -236 -545 -259 -9 -5 -52 -16 -98 -26 -79 -17 -85 -17 -164 0 -46 10 -89 21 -98 25 -14 7 -38 17 -92 39 -13 5 -39 14 -58 21 -19 7 -48 18 -65 25 -71 31 -361 128 -415 140 -64 14 -176 74 -212 113 -20 22 -56 79 -80 128 -25 49 -50 98 -56 109 -6 11 -72 144 -146 295 -157 321 -188 377 -239 447 -60 83 -117 122 -232 161 -96 32 -148 41 -355 57 -107 8 -213 17 -235 19 -22 3 -53 1 -68 -4z m280 -2500 c211 -16 371 -36 503 -61 51 -10 73 -14 190 -40 50 -11 112 -27 150 -39 14 -4 45 -13 70 -20 72 -21 252 -80 285 -95 17 -7 46 -18 65 -25 148 -54 477 -216 572 -282 14 -10 29 -18 32 -18 3 0 63 -38 133 -84 228 -150 494 -368 674 -553 104 -107 303 -341 367 -431 67 -96 219 -329 249 -382 16 -30 39 -71 50 -90 44 -78 124 -243 168 -345 9 -22 21 -49 26 -60 14 -33 89 -245 111 -315 73 -236 115 -421 149 -655 47 -319 50 -793 9 -1073 -31 -204 -61 -372 -81 -447 -6 -22 -15 -58 -21 -80 -6 -22 -14 -51 -18 -65 -4 -14 -13 -45 -20 -70 -26 -95 -95 -291 -136 -385 -7 -16 -20 -50 -30 -75 -49 -127 -213 -427 -340 -622 -228 -350 -575 -721 -928 -992 -86 -67 -369 -256 -382 -256 -3 0 -18 -8 -32 -19 -48 -33 -294 -161 -392 -204 -19 -8 -55 -24 -80 -35 -75 -33 -358 -130 -470 -162 -25 -7 -56 -16 -70 -20 -43 -14 -159 -40 -260 -59 -162 -30 -221 -38 -416 -61 -117 -13 -600 -13 -718 0 -228 26 -414 55 -516 80 -19 5 -64 16 -100 25 -167 40 -471 136 -522 165 -10 6 -22 10 -28 10 -27 0 -407 187 -544 269 -127 75 -327 209 -415 278 -352 275 -706 657 -926 998 -30 47 -55 89 -55 92 0 4 -6 14 -14 22 -23 27 -134 228 -196 356 -61 127 -80 172 -114 265 -15 41 -32 84 -36 95 -16 37 -92 277 -120 380 -25 95 -47 197 -79 375 -11 63 -27 197 -41 355 -13 141 -13 454 0 587 21 225 30 291 61 458 51 270 166 650 267 875 59 131 195 391 234 447 10 14 18 29 18 32 0 14 176 271 252 368 207 266 331 398 558 592 187 160 262 218 435 332 226 150 539 313 735 384 19 6 44 16 55 20 187 76 495 162 713 199 141 25 181 31 272 41 265 30 491 36 697 20z"/>
 </g>

</svg>