<?xml version="1.0" encoding="UTF-8" ?>
<!DOCTYPE svg PUBLIC "-//W3C//DTD SVG 1.1//EN" "http://www.w3.org/Graphics/SVG/1.1/DTD/svg11.dtd">
<svg width="1000pt" height="1000pt" viewBox="0 0 1000 1000" version="1.1" xmlns="http://www.w3.org/2000/svg">
<path fill="#ef5c5c" d=" M 0.00 0.00 L 1000.00 0.00 L 1000.00 1000.00 L 0.00 1000.00 L 0.00 0.00 Z" />
<path fill="#fffefe" d=" M 835.55 65.91 C 857.83 100.23 872.45 139.45 878.54 179.89 C 889.43 250.93 872.66 325.80 832.26 385.26 C 830.30 388.31 827.76 391.20 827.09 394.87 C 826.37 398.33 826.88 401.92 827.82 405.29 C 834.23 427.07 838.33 449.52 840.29 472.14 C 840.58 478.12 844.24 483.73 849.61 486.36 C 854.40 488.84 859.86 487.60 865.00 487.62 C 874.00 487.50 882.99 486.94 891.99 486.71 C 900.56 486.41 908.65 493.45 909.45 502.00 C 909.87 513.67 909.06 525.32 908.12 536.95 C 905.34 567.99 899.11 598.75 889.38 628.37 C 887.79 632.76 886.80 637.43 884.34 641.46 C 880.19 647.91 871.47 651.47 864.16 648.55 C 852.98 644.21 841.95 639.49 830.78 635.12 C 823.42 632.36 813.99 635.49 810.66 642.83 C 801.74 662.10 791.27 680.69 778.89 697.96 C 775.35 702.64 774.72 709.22 777.28 714.50 C 779.19 719.12 783.67 721.72 787.38 724.74 C 794.48 730.25 801.56 735.81 808.67 741.32 C 813.52 744.92 816.40 751.04 815.72 757.10 C 815.62 762.48 811.97 766.79 808.50 770.53 C 779.74 803.47 745.64 831.75 707.94 853.90 C 700.06 858.79 688.65 856.02 684.05 847.94 C 678.08 837.19 672.76 826.07 666.52 815.49 C 662.28 808.59 652.81 806.29 645.65 809.77 C 628.72 817.69 611.19 824.35 593.18 829.38 C 588.18 830.80 582.55 831.80 579.02 835.98 C 574.95 840.13 573.91 846.33 575.19 851.86 C 577.32 861.84 579.43 871.84 581.58 881.83 C 582.44 885.90 582.81 890.30 581.17 894.24 C 578.75 899.92 573.33 904.26 567.15 905.02 C 522.49 912.39 476.63 912.32 431.99 904.84 C 423.02 903.39 416.19 893.95 417.92 884.95 C 420.29 873.25 423.01 861.61 425.36 849.91 C 427.04 841.62 421.14 832.79 412.90 831.02 C 392.78 825.76 373.17 818.55 354.36 809.69 C 348.75 807.05 341.58 807.69 336.82 811.77 C 333.33 814.57 331.72 818.87 329.63 822.67 C 325.33 830.72 321.08 838.80 316.76 846.85 C 313.58 852.86 306.75 856.71 299.95 856.24 C 294.96 855.81 290.71 852.96 286.55 850.43 C 249.85 828.07 216.78 799.81 188.83 767.17 C 184.56 762.21 183.26 754.89 185.79 748.82 C 187.64 744.30 191.63 741.24 195.37 738.33 C 202.69 732.68 209.91 726.92 217.22 721.26 C 224.38 716.32 226.78 705.62 221.50 698.47 C 209.25 681.14 198.52 662.70 189.69 643.39 C 187.06 637.44 180.41 633.82 174.00 634.25 C 170.51 634.27 167.41 636.06 164.23 637.27 C 155.26 640.87 146.29 644.47 137.32 648.05 C 132.58 649.89 127.07 649.91 122.55 647.45 C 118.04 645.37 115.08 641.03 113.48 636.47 C 101.64 602.78 94.25 567.52 91.56 531.92 C 90.96 522.29 90.14 512.64 90.56 502.99 C 90.95 495.21 97.30 488.35 104.93 487.05 C 108.88 486.40 112.90 486.79 116.86 487.06 C 125.56 487.45 134.28 487.47 142.98 487.96 C 149.39 488.26 155.76 484.31 158.35 478.43 C 159.64 475.86 159.82 472.95 160.14 470.15 C 162.06 447.75 166.40 425.58 172.74 404.03 C 174.58 398.63 173.29 392.67 169.93 388.16 C 137.69 341.69 119.46 285.56 118.58 228.99 C 117.30 177.18 130.48 125.12 156.04 80.04 C 158.84 75.28 161.43 70.38 164.78 65.98 C 164.48 74.33 163.31 82.65 163.62 91.03 C 163.12 154.71 189.74 218.22 235.95 262.12 C 240.08 265.84 246.34 266.50 251.45 264.64 C 255.95 263.18 258.62 259.04 262.07 256.10 C 275.54 243.06 290.02 231.04 305.46 220.40 C 310.47 217.05 313.31 210.85 312.53 204.87 C 311.95 200.16 309.11 196.22 306.67 192.30 C 301.74 184.57 296.91 176.78 292.05 169.01 C 288.24 163.17 288.46 155.11 292.62 149.52 C 295.29 145.66 299.66 143.73 303.66 141.61 C 339.32 122.09 377.92 108.01 417.73 99.81 C 423.16 98.78 428.89 96.65 434.36 98.72 C 440.46 100.81 445.23 106.34 446.07 112.78 C 447.76 124.16 449.12 135.60 450.95 146.97 C 451.81 153.14 456.41 158.62 462.45 160.29 C 468.24 161.54 474.19 160.43 480.04 160.25 C 497.34 158.92 514.71 159.56 531.98 161.12 C 539.83 161.64 547.75 155.99 549.11 148.10 C 551.00 136.18 552.36 124.18 554.30 112.27 C 555.69 103.63 564.38 96.97 573.07 98.00 C 618.87 106.19 663.11 122.55 703.53 145.52 C 710.72 150.35 712.98 161.02 708.49 168.40 C 702.37 178.04 696.43 187.80 690.30 197.43 C 686.63 202.81 686.50 210.43 690.12 215.86 C 692.65 219.72 696.82 221.94 700.43 224.63 C 713.59 234.28 726.27 244.66 737.84 256.18 C 742.62 261.12 748.42 266.65 755.93 265.58 C 763.71 265.17 768.28 258.20 773.26 253.18 C 812.27 211.42 835.24 155.10 836.47 97.96 C 837.27 87.26 835.73 76.59 835.55 65.91 Z" />
<path fill="#ef5c5c" d=" M 476.57 246.83 C 518.42 242.98 561.21 249.54 599.88 266.02 C 635.55 281.20 667.74 304.62 693.06 333.98 C 729.02 375.24 751.01 428.41 754.59 483.03 C 755.01 492.33 755.93 501.65 754.99 510.95 C 753.59 552.03 741.86 592.68 721.30 628.26 C 689.91 683.07 637.47 725.45 577.16 744.32 C 532.48 758.55 483.85 760.03 438.37 748.65 C 405.58 740.58 374.45 725.81 347.43 705.55 C 317.03 682.87 291.73 653.35 274.13 619.74 C 255.53 584.52 245.25 544.82 245.01 504.96 C 243.95 459.23 255.91 413.32 278.78 373.72 C 302.83 331.92 338.95 297.11 381.74 274.82 C 411.11 259.40 443.54 249.86 476.57 246.83 Z" />
</svg>
