<?xml version="1.0" encoding="UTF-8" ?>
<!DOCTYPE svg PUBLIC "-//W3C//DTD SVG 1.1//EN" "http://www.w3.org/Graphics/SVG/1.1/DTD/svg11.dtd">
<svg width="1000pt" height="1000pt" viewBox="0 0 1000 1000" version="1.1" xmlns="http://www.w3.org/2000/svg">
<path fill="#ef5c5c" d=" M 0.00 0.00 L 1000.00 0.00 L 1000.00 1000.00 L 0.00 1000.00 L 0.00 0.00 Z" />
<path fill="#fffefe" d=" M 156.01 80.09 C 158.84 75.34 161.38 70.39 164.79 66.00 C 164.50 74.35 163.30 82.66 163.64 91.02 C 163.11 153.99 189.15 216.76 234.38 260.62 C 238.30 265.24 245.08 266.76 250.75 264.86 C 255.64 263.65 258.43 259.17 262.07 256.11 C 272.59 245.90 283.74 236.35 295.48 227.57 C 302.82 221.50 312.56 216.42 315.16 206.53 C 318.13 190.85 318.98 174.85 321.96 159.17 C 323.68 150.24 324.08 140.36 329.97 132.95 C 334.88 127.64 341.15 123.61 347.85 120.93 C 363.00 114.69 378.58 109.34 394.62 105.91 C 399.98 105.15 405.48 105.01 410.85 105.75 C 420.34 108.10 426.73 116.01 433.68 122.29 C 442.18 129.82 449.30 138.70 457.32 146.71 C 461.48 150.85 465.70 155.22 471.16 157.64 C 476.85 159.82 483.04 159.32 489.01 159.36 C 502.44 159.65 515.88 159.57 529.30 158.90 C 533.67 158.72 538.02 157.29 541.31 154.32 C 549.07 147.45 556.75 140.47 564.03 133.08 C 570.10 127.47 576.40 122.13 582.61 116.67 C 587.11 112.74 592.08 108.95 598.00 107.53 C 605.84 106.55 613.93 107.28 621.41 109.91 C 636.11 114.31 650.55 119.66 664.24 126.62 C 672.68 131.18 681.20 137.79 683.07 147.80 C 685.60 161.40 687.09 175.21 687.74 189.03 C 688.83 197.97 688.19 207.46 692.25 215.75 C 695.98 222.26 702.58 226.24 708.42 230.62 C 719.26 239.00 729.70 247.93 739.35 257.66 C 742.12 260.19 744.72 263.12 748.32 264.47 C 753.49 266.59 759.92 265.87 764.28 262.29 C 808.64 219.84 835.18 159.41 836.45 98.02 C 837.29 87.36 835.73 76.72 835.58 66.07 C 857.93 100.26 872.41 139.49 878.53 179.84 C 889.63 252.07 872.08 328.25 830.26 388.22 C 826.72 392.57 825.98 398.54 827.45 403.86 C 830.18 413.44 832.72 423.09 834.64 432.87 C 836.45 443.40 839.61 453.63 841.52 464.15 C 842.42 469.16 844.19 474.39 848.29 477.71 C 858.16 485.57 868.54 492.75 878.67 500.27 C 886.14 506.44 894.42 511.74 901.02 518.92 C 907.57 525.80 908.30 536.04 907.34 545.02 C 905.39 561.48 903.02 577.95 898.69 593.97 C 896.01 601.88 892.28 610.45 884.62 614.69 C 878.26 618.36 871.02 620.00 864.14 622.37 C 853.61 626.02 842.61 628.03 831.95 631.28 C 826.25 633.07 820.12 634.49 815.48 638.47 C 810.17 643.56 807.53 650.60 803.89 656.84 C 798.66 667.08 792.72 676.92 786.75 686.73 C 783.19 694.14 776.83 701.17 778.32 710.00 C 780.92 725.51 785.77 740.55 788.58 756.03 C 789.96 763.65 792.28 771.26 791.57 779.09 C 791.38 784.72 788.07 789.52 784.96 793.98 C 781.58 798.86 777.00 802.71 772.63 806.67 C 763.89 814.67 754.64 822.13 744.93 828.93 C 738.95 833.22 732.21 836.62 725.00 838.22 C 715.93 839.53 707.52 835.03 699.37 831.78 C 686.94 826.95 675.29 820.41 663.13 814.96 C 656.86 812.17 649.72 810.01 642.95 812.31 C 629.63 816.86 616.56 822.17 603.12 826.41 C 597.50 827.84 591.78 829.58 587.05 833.06 C 581.31 837.44 580.00 845.08 575.65 850.55 C 571.02 862.72 564.81 874.23 558.68 885.70 C 555.16 892.46 551.34 899.70 544.51 903.65 C 532.32 909.97 518.26 908.93 505.02 910.38 C 499.64 911.11 494.40 909.34 489.04 909.45 C 479.10 909.04 468.76 908.11 459.90 903.21 C 452.18 898.24 448.61 889.39 444.31 881.70 C 436.92 868.70 431.89 854.51 424.41 841.56 C 422.31 838.12 419.67 834.81 416.01 832.96 C 409.28 829.21 401.54 828.14 394.36 825.61 C 385.07 822.43 375.84 819.04 366.40 816.34 C 360.99 814.76 355.74 811.96 349.94 812.33 C 346.48 812.30 343.36 813.94 340.21 815.14 C 327.09 820.19 314.64 826.83 301.43 831.67 C 292.47 834.94 283.36 840.05 273.49 838.30 C 267.45 836.71 261.61 834.08 256.65 830.26 C 245.42 821.97 234.47 813.26 224.44 803.56 C 218.18 797.73 212.48 790.99 209.43 782.92 C 206.71 773.64 210.12 764.19 211.88 755.07 C 214.18 743.44 218.16 732.24 220.86 720.70 C 222.44 715.09 223.51 709.18 222.50 703.38 C 221.22 698.58 218.54 694.32 215.84 690.22 C 211.50 683.76 207.49 677.10 203.56 670.39 C 198.65 661.71 194.20 652.73 188.46 644.55 C 185.68 640.68 181.36 638.39 176.84 637.19 C 162.06 632.28 146.83 628.83 132.16 623.58 C 124.49 620.91 116.03 618.86 110.29 612.70 C 103.73 604.89 101.11 594.76 99.15 584.97 C 96.34 571.78 94.03 558.42 93.36 544.94 C 93.42 537.39 93.91 529.07 98.83 522.93 C 102.21 518.27 107.03 515.02 111.45 511.46 C 122.91 502.05 135.61 494.36 147.53 485.57 C 151.02 482.82 154.50 479.78 156.62 475.81 C 160.17 468.50 159.58 460.10 162.12 452.49 C 164.07 439.52 166.59 426.64 169.97 413.97 C 171.09 409.30 172.89 404.78 173.52 400.00 C 174.03 395.72 172.31 391.55 169.89 388.10 C 137.67 341.65 119.46 285.53 118.58 228.99 C 117.31 177.19 130.47 125.16 156.01 80.09 Z" />
<path fill="#ef5c5c" d=" M 476.55 246.83 C 510.68 243.72 545.44 247.44 578.08 257.92 C 610.27 268.18 640.29 285.06 665.94 307.02 C 695.00 331.78 718.34 363.21 733.70 398.15 C 746.73 427.72 754.04 459.81 755.04 492.11 C 755.99 501.44 754.84 510.77 754.54 520.10 C 751.74 558.29 740.20 595.82 720.92 628.92 C 687.92 686.20 631.85 729.68 568.02 747.04 C 525.39 758.83 479.71 759.26 436.87 748.28 C 398.19 738.52 361.94 719.38 332.00 693.03 C 303.29 668.08 280.48 636.49 265.42 601.59 C 251.34 568.71 244.16 532.84 245.01 497.07 C 245.27 453.69 257.42 410.52 279.17 373.03 C 299.45 338.04 328.18 308.03 362.19 286.17 C 396.43 264.14 436.01 250.53 476.55 246.83 Z" />
</svg>
